# xmcd
#
# Track frame offsets: 
#        150
#        13329
#        33067
#        52546
#        68788
#        89237
#        112221
#        114670
#        128427
#        147913
#        169806
#        183494
#        197478
#
# Disc length: 2832 seconds
#
# Revision: 25
# Processed by: cddbd v1.5.2PL0 Copyright (c) Steve Scherf et al.
# Submitted via: ExactAudioCopy v1.0b3
#
DISCID=b20b0e0d
DTITLE=??? - Groupies ???
DYEAR=2002
DGENRE=Folk
TTITLE0=???????
TTITLE1=???
TTITLE2=????
TTITLE3=1234567
TTITLE4=????
TTITLE5=?????? - Guitar
TTITLE6=A Practice
TTITLE7=???
TTITLE8=???
TTITLE9=?????????
TTITLE10=???
TTITLE11=???
TTITLE12=?????? - Piano
EXTD=YEAR: 2002
EXTT0=
EXTT1=
EXTT2=
EXTT3=
EXTT4=
EXTT5=
EXTT6=
EXTT7=
EXTT8=
EXTT9=
EXTT10=
EXTT11=
EXTT12=
PLAYORDER=
